<?xml version="1.0" encoding="UTF-8" standalone="no"?>
<!-- Created with Inkscape (http://www.inkscape.org/) -->

<svg
   xmlns:dc="http://purl.org/dc/elements/1.1/"
   xmlns:cc="http://creativecommons.org/ns#"
   xmlns:rdf="http://www.w3.org/1999/02/22-rdf-syntax-ns#"
   xmlns:svg="http://www.w3.org/2000/svg"
   xmlns="http://www.w3.org/2000/svg"
   xmlns:sodipodi="http://sodipodi.sourceforge.net/DTD/sodipodi-0.dtd"
   xmlns:inkscape="http://www.inkscape.org/namespaces/inkscape"
   id="svg2985"
   version="1.1"
   inkscape:version="0.48.2 r9819"
   width="430.94604"
   height="253.05696"
   sodipodi:docname="exitologo.svg">
  <metadata
     id="metadata2991">
    <rdf:RDF>
      <cc:Work
         rdf:about="">
        <dc:format>image/svg+xml</dc:format>
        <dc:type
           rdf:resource="http://purl.org/dc/dcmitype/StillImage" />
        <dc:title />
      </cc:Work>
    </rdf:RDF>
  </metadata>
  <defs
     id="defs2989" />
  <sodipodi:namedview
     pagecolor="#ffffff"
     bordercolor="#666666"
     borderopacity="1"
     objecttolerance="10"
     gridtolerance="10"
     guidetolerance="10"
     inkscape:pageopacity="0"
     inkscape:pageshadow="2"
     inkscape:window-width="1366"
     inkscape:window-height="706"
     id="namedview2987"
     showgrid="false"
     inkscape:zoom="0.35355339"
     inkscape:cx="325.19697"
     inkscape:cy="11.190051"
     inkscape:window-x="-8"
     inkscape:window-y="-8"
     inkscape:window-maximized="1"
     inkscape:current-layer="svg2985"
     showguides="true"
     inkscape:guide-bbox="true"
     showborder="false"
     inkscape:showpageshadow="false"
     fit-margin-top="0"
     fit-margin-left="0"
     fit-margin-right="0"
     fit-margin-bottom="0" />
  <rect
     style="fill:none"
     id="rect3916"
     width="1.5909903"
     height="11.136932"
     x="0"
     y="125.75864" />
  <rect
     y="-430.94604"
     x="113.62869"
     height="2"
     width="20"
     id="rect3912"
     style="fill:none"
     transform="matrix(0,1,-1,0,0,0)" />
  <rect
     y="0"
     x="296.44717"
     height="1.2928932"
     width="20"
     id="rect3910"
     style="fill:none" />
  <rect
     style="fill:none"
     id="rect3908"
     width="20"
     height="1.5580583"
     x="293.19717"
     y="251.4989" />
  <path
     sodipodi:type="arc"
     style="fill:#ffe701;fill-opacity:1;stroke:none"
     id="path3122"
     sodipodi:cx="440.5"
     sodipodi:cy="303.5"
     sodipodi:rx="112.5"
     sodipodi:ry="224.5"
     d="m 553,303.5 a 112.5,224.5 0 1 1 -225,0 112.5,224.5 0 1 1 225,0 z"
     transform="matrix(1.1133343,0,0,0.55790646,-185.51322,-42.929039)" />
  <path
     style="fill:#000000;fill-opacity:1;stroke:none"
     d="m 416.8986,100.02536 c -3.50701,0 -6.34376,2.83674 -6.34376,6.34375 0,3.50701 2.83675,6.35937 6.34376,6.35937 3.50701,0 6.35938,-2.85236 6.35938,-6.35937 0,-3.50701 -2.85237,-6.34375 -6.35938,-6.34375 z m 0.0312,1.26562 c 2.80285,0 5.07813,2.27528 5.07813,5.07813 0,2.80284 -2.27528,5.0625 -5.07813,5.0625 -2.80285,0 -5.0625,-2.25966 -5.0625,-5.0625 0,-2.80285 2.25965,-5.07813 5.0625,-5.07813 z"
     id="path3060"
     inkscape:connector-curvature="0" />
  <path
     style="fill:#000000;fill-rule:evenodd;stroke:none"
     d="m 224.19532,100.24411 c -0.14124,0.002 -0.28953,0.019 -0.4375,0.0312 -0.0209,-4.1e-4 -0.0416,3.4e-4 -0.0625,0 -0.0628,-0.001 -0.12416,4.2e-4 -0.1875,0 -0.32763,-0.002 -0.65267,3.2e-4 -0.98438,0.0156 -1.03934,0.0482 -2.01105,0.18426 -2.90625,0.39062 -0.0212,0.005 -0.0413,0.0107 -0.0625,0.0156 -2.34133,0.3965 -4.37582,1.11691 -5.95313,2.03125 -1.51108,0.69844 -2.82532,1.51222 -3.90625,2.39063 -0.0148,0.012 -0.0321,0.0192 -0.0469,0.0312 -4.37022,3.22017 -7.67729,7.99236 -9.26564,13.59375 -0.009,0.0313 -0.0224,0.0624 -0.0312,0.0937 -0.80636,2.65259 -1.25,5.50089 -1.25,8.48437 0,8.17241 3.30186,15.42504 8.40626,19.98438 0.68499,0.70065 1.49532,1.39593 2.42188,2.04687 1.11346,0.78225 2.25111,1.3921 3.3125,1.82813 0.0379,0.0156 0.0717,0.0317 0.10937,0.0469 2.61693,1.27 6.51266,2.07812 10.85939,2.07812 0.71405,0 1.40936,-0.0338 2.09375,-0.0781 0.005,-3.4e-4 0.0104,3.4e-4 0.0156,0 0.63221,0.0362 1.32104,0.0304 2.03125,-0.0469 0.21892,-0.0238 0.43045,-0.0602 0.64063,-0.0937 10.06247,-0.64478 18.23578,-8.08048 19.87501,-17.70313 0.002,-0.005 -0.001,-0.011 0,-0.0156 0.0512,-0.15907 0.0929,-0.3332 0.14063,-0.5 l -13.62501,0 c -1.03434,3.12379 -4.03412,5.53066 -7.78126,6.17188 -0.0112,0.002 -0.0199,0.0131 -0.0312,0.0156 -0.0395,0.007 -0.0854,0.009 -0.125,0.0156 -0.66187,0.1313 -1.52478,0.21875 -2.48438,0.21875 -1.37988,0 -2.58678,-0.16053 -3.23437,-0.40625 -2.95526,-0.7902 -5.29089,-3.04653 -6.17188,-5.90625 -0.0154,-0.0433 -0.032,-0.0943 -0.0469,-0.14063 -0.0334,-0.11557 -0.0652,-0.22631 -0.0937,-0.34375 -0.0509,-0.19638 -0.0976,-0.40837 -0.14063,-0.64062 -0.13725,-0.74114 -0.23185,-1.65141 -0.26562,-2.65625 l 0,-0.0469 0,-0.0312 0.1875,0 0.4375,0 0.29687,0 0.23438,0 33.53127,0 c 0.0701,-0.75422 0.10938,-1.53683 0.10938,-2.34375 0,-0.76629 -0.046,-1.50407 -0.10938,-2.21875 -0.002,-0.0203 0.002,-0.0423 0,-0.0625 -0.063,-1.73965 -0.25875,-3.32329 -0.5625,-4.625 -0.697,-4.88416 -2.28067,-9.02474 -4.40625,-11.6875 -0.0117,-0.0146 -0.0196,-0.0326 -0.0312,-0.0469 -4.16118,-5.94756 -11.20959,-9.85938 -19.20314,-9.85938 -0.1678,0 -0.3334,0.01 -0.5,0.0156 -0.249,-0.0365 -0.5144,-0.0513 -0.79688,-0.0469 z m 0.64062,12.25 c 1.25741,0 2.34739,0.1708 2.93751,0.42187 3.24225,0.97209 5.68134,4.09452 5.95313,7.875 l -8.71876,0 -0.0625,0 -9.93751,0 c 0.32767,-4.01569 3.40835,-7.27677 7.42188,-8.04687 0.0102,-0.002 0.0209,-0.0132 0.0312,-0.0156 0.036,-0.007 0.0733,-0.009 0.10938,-0.0156 0.60313,-0.13416 1.3912,-0.21875 2.26562,-0.21875 z"
     id="path2995"
     inkscape:connector-curvature="0" />
  <path
     style="fill:#000000;stroke:none"
     d="m 245.36709,101.41598 8.45313,12.125 0,-0.0469 8.07813,11.98438 -9.70313,14.40625 0,0.0156 -3.32813,4.9375 -4.92188,7.3125 17.78126,0 9.40626,-14.07813 9.15626,13.70313 0.15625,0.23437 9.39063,0 2.32813,0 6.32813,0 -8.65626,-12.48437 0,0.0312 -9.73438,-14.45313 8.23438,-11.6875 0,0.125 3.64063,-5.29687 4.70313,-6.82813 -17.90627,0 -7.53125,11.375 -7.70313,-11.375 -18.17189,0 z m 17.93751,0.0781 -0.76562,0.57812 -0.0156,-0.0312 0.78125,-0.54687 z"
     id="rect3149"
     inkscape:connector-curvature="0" />
  <path
     style="fill:#000000;stroke:none"
     d="m 299.60166,101.41598 2.85937,50.57813 0.14063,0 0.26562,0 11.93751,0 2.31251,0 0.14062,0 2.85938,-50.57813 -3,0 -2.31251,0 -11.93751,0 -0.26562,0 -3,0 z"
     id="rect3212"
     inkscape:connector-curvature="0" />
  <path
     sodipodi:type="arc"
     style="fill:#ec1b23;fill-opacity:1;stroke:none"
     id="path3244"
     sodipodi:cx="395.88394"
     sodipodi:cy="354.18375"
     sodipodi:rx="16.495165"
     sodipodi:ry="11.26499"
     d="m 412.37911,354.18375 a 16.495165,11.26499 0 1 1 -32.99033,0 16.495165,11.26499 0 1 1 32.99033,0 z"
     transform="matrix(0.57933693,0,0,0.84831411,80.482724,-136.44309)" />
  <path
     style="fill:#000000;fill-opacity:1;stroke:none"
     d="m 331.14856,86.994111 0,14.374999 -8.04688,0 0,11.3125 8.04688,0 0,23.95312 0,0.0469 0,3.78125 0,0.0781 0,0.25 0,0.0156 c -0.0426,0.32891 -0.0623,0.73152 -0.0468,1.17187 0.0224,0.64069 0.11915,1.18702 0.23437,1.5 0.003,0.008 0.0128,0.008 0.0156,0.0156 0.51185,3.30556 2.95394,6.10416 6.35938,7.64063 0.1714,0.0773 0.33941,0.1636 0.51563,0.23437 0.14498,0.0582 0.2894,0.11821 0.4375,0.17188 0.0627,0.0218 0.12256,0.0412 0.1875,0.0625 1.13756,0.39382 2.35961,0.65147 3.64063,0.75 0.0104,0.002 0.0209,-0.002 0.0312,0 1.30377,0.16217 2.75534,0.25 4.28125,0.25 1.16887,0 2.28283,-0.0446 3.32813,-0.14063 0.75563,0.002 1.55498,-0.0294 2.39063,-0.0937 1.50515,-0.11583 2.85104,-0.32761 3.92187,-0.59375 l 0,-2.98437 c -0.0124,-0.009 -0.0186,-0.0224 -0.0312,-0.0312 l 0,-3.3125 0,-6.5 -0.53125,0 c -0.13567,0.0854 -0.27979,0.15104 -0.4375,0.20312 l 0,0.0312 c -1.86014,0.61862 -4.43497,0.71403 -7.29688,0.14063 -0.01,-0.002 -0.0212,0.002 -0.0312,0 -0.68047,0 -1.23437,-0.573 -1.23437,-1.28125 0,-0.10523 0.008,-0.19901 0.0312,-0.29688 l 0,-1.0625 0,-4.34375 0,-19.65625 9.5625,0 0,-11.3125 -9.5625,0 0,-14.374999 -15.76564,0 z"
     id="rect3246"
     inkscape:connector-curvature="0" />
  <path
     style="fill:#000000;fill-opacity:1;stroke:none"
     d="m 384.50795,99.947231 c -7.33026,0 -13.90579,2.619329 -18.40626,6.765629 -0.18439,0.16988 -0.36956,0.34067 -0.54688,0.51562 -0.46456,0.45014 -0.91483,0.92126 -1.34375,1.4375 -0.0136,0.0165 -0.0332,0.0303 -0.0468,0.0469 -0.0599,0.0717 -0.11314,0.14635 -0.17187,0.21875 -0.12526,0.15611 -0.25312,0.32282 -0.375,0.48438 -0.0387,0.0508 -0.0712,0.10515 -0.10938,0.15625 -0.15041,0.20327 -0.29252,0.39793 -0.4375,0.60937 -0.0528,0.0767 -0.10465,0.15703 -0.15625,0.23438 -0.18578,0.27847 -0.3707,0.56776 -0.54688,0.85937 -2.49597,4.13144 -4.01562,9.54523 -4.01562,15.48438 0,5.93738 1.52098,11.3534 4.01562,15.48437 0.17529,0.29027 0.36208,0.58213 0.54688,0.85938 0.19372,0.29064 0.38999,0.56801 0.59375,0.84375 0.18935,0.25623 0.38047,0.50715 0.57813,0.75 0.026,0.0316 0.0519,0.0623 0.0781,0.0937 0.0163,0.0199 0.0304,0.0428 0.0469,0.0625 0.59552,0.71676 1.22767,1.38127 1.89062,1.96875 0.0197,0.0174 0.0427,0.0296 0.0625,0.0469 4.4987,4.11166 11.04881,6.70317 18.34377,6.70317 7.29495,0 13.84506,-2.59151 18.34376,-6.70312 0.0191,-0.0174 0.0435,-0.0293 0.0625,-0.0469 0.66295,-0.58748 1.2951,-1.25199 1.89063,-1.96875 0.0166,-0.0198 0.0303,-0.0426 0.0469,-0.0625 0.009,-0.0111 0.022,-0.02 0.0312,-0.0312 0.0168,-0.0202 0.0301,-0.0421 0.0468,-0.0625 0.19766,-0.24285 0.38878,-0.49377 0.57814,-0.75 0.20374,-0.27574 0.40001,-0.55311 0.59375,-0.84375 0.18479,-0.27725 0.37157,-0.56911 0.54686,-0.85938 2.49465,-4.13097 4.01564,-9.54699 4.01564,-15.48437 0,-5.93915 -1.51967,-11.35294 -4.01564,-15.48438 -0.17617,-0.29161 -0.36109,-0.5809 -0.54686,-0.85937 -0.3372,-0.50541 -0.69045,-1.00647 -1.07814,-1.48438 -0.0454,-0.0566 -0.0948,-0.11601 -0.14061,-0.17187 -0.0259,-0.0312 -0.052,-0.0627 -0.0781,-0.0937 -0.42892,-0.51624 -0.87919,-0.98737 -1.34375,-1.4375 -0.0834,-0.0823 -0.16504,-0.16884 -0.25,-0.25 -0.0969,-0.0901 -0.1986,-0.17853 -0.29688,-0.26563 -4.50041,-4.14632 -11.07594,-6.765649 -18.4062,-6.765649 z m -0.0625,12.515629 c 3.26744,0 6.16405,1.59101 8.01563,4.04687 0.12998,0.1569 0.2521,0.33275 0.375,0.51563 0.17653,0.26267 0.35533,0.53134 0.51563,0.84375 0.0841,0.15765 0.14257,0.32189 0.21875,0.48437 0.0405,0.0895 0.0858,0.17297 0.125,0.26563 0.1152,0.2652 0.21906,0.53613 0.3125,0.8125 0.0826,0.24434 0.16957,0.49776 0.23438,0.75 0.004,0.0156 0.0116,0.0312 0.0156,0.0469 0.54273,1.85618 0.85937,4.10489 0.85937,6.53125 0,2.55882 -0.35516,4.91676 -0.95312,6.82812 -0.016,0.0559 -0.03,0.11634 -0.0469,0.17188 -0.0136,0.0418 -0.0331,0.0837 -0.0469,0.125 -0.0891,0.27961 -0.18563,0.55952 -0.29688,0.82812 -0.009,0.0213 -0.0226,0.0414 -0.0312,0.0625 -0.0176,0.0416 -0.0288,0.0837 -0.0469,0.125 -0.39367,0.92965 -0.85027,1.69636 -1.35938,2.26563 -0.0252,0.0319 -0.0526,0.0622 -0.0781,0.0937 -0.0346,0.0369 -0.0743,0.0744 -0.10937,0.10937 -1.8575,2.23028 -4.61359,3.65625 -7.70313,3.65625 -3.27967,0 -6.18068,-1.60652 -8.03126,-4.07812 -0.11649,-0.14473 -0.23306,-0.30297 -0.34375,-0.46875 -0.004,-0.006 -0.0116,-0.01 -0.0156,-0.0156 -0.14568,-0.21963 -0.28729,-0.44923 -0.42187,-0.70313 -0.0202,-0.0365 -0.0427,-0.0727 -0.0625,-0.10937 -0.008,-0.0158 -0.0231,-0.0309 -0.0312,-0.0469 -0.44812,-0.84249 -0.77894,-1.7556 -0.98438,-2.71875 -0.0109,-0.0409 -0.0206,-0.0837 -0.0312,-0.125 -0.45426,-1.74936 -0.71875,-3.79754 -0.71875,-6 0,-2.20246 0.26449,-4.25065 0.71875,-6 0.002,-0.0102 -0.002,-0.0211 0,-0.0312 0.25524,-1.27356 0.75414,-2.45932 1.42188,-3.51563 0.12615,-0.19957 0.26732,-0.3883 0.40625,-0.57812 1.84672,-2.52323 4.77413,-4.17188 8.09375,-4.17188 z"
     id="path3011"
     inkscape:connector-curvature="0" />
  <path
     style="fill:#000000;fill-opacity:1;stroke:none"
     d="m 227.08582,86.994111 -8.06251,10.23437 10.01564,0 13.39063,-10.23437 -15.34376,0 z"
     id="rect3066"
     inkscape:connector-curvature="0" />
  <path
     style="fill:#000000;fill-opacity:1;stroke:none"
     d="m 415.2736,102.95663 0,0.0156 -0.95313,0 0,6.75 1.53125,0 0,-2.9375 0.87501,0 1.4375,2.9375 1.6875,0 -1.46875,-3 c 0.11305,-0.0326 0.22773,-0.0811 0.34375,-0.15625 0.26516,-0.17184 0.46697,-0.43187 0.59375,-0.70312 0.002,-0.007 0.0126,-0.009 0.0156,-0.0156 0.21161,-0.29327 0.30837,-0.76201 0.25,-1.26563 -0.0701,-0.60435 -0.35298,-1.08608 -0.70313,-1.26562 -0.0636,-0.053 -0.13028,-0.0906 -0.20312,-0.125 -0.0216,-0.0132 -0.041,-0.0192 -0.0625,-0.0312 -0.0249,-0.01 -0.0527,-0.0236 -0.0781,-0.0312 -0.17856,-0.09 -0.35217,-0.14173 -0.5,-0.15625 -10e-4,-8e-5 0.001,-0.0156 0,-0.0156 l -0.0468,0 -2.71875,0 z m 0.57812,1.40625 1.78126,0 c 0.004,0.006 0.0108,0.01 0.0156,0.0156 0.20315,0.0552 0.35937,0.33318 0.35937,0.67188 0,0.33103 -0.14613,0.60752 -0.34375,0.67187 l -0.14062,0 -1.67188,0 0,-1.35937 z"
     id="rect3090"
     inkscape:connector-curvature="0" />
  <path
     style="fill:#ec1b23;fill-opacity:1"
     d="m 115.6015,110.77536 c -5.26543,0 -9.95128,2.15129 -13.00001,5.5 l 0,-4.20313 -5.500006,0 0,56.0625 5.500006,0 0,-19.34375 c 3.0515,3.34815 7.736,5.48438 13.00001,5.48438 6.41072,0 11.96564,-3.18207 14.75001,-7.84375 0.01,-0.0163 0.0372,-0.0306 0.0469,-0.0469 0.53393,-0.81102 0.99752,-1.72922 1.35937,-2.71875 0.0286,-0.0748 0.0501,-0.15739 0.0781,-0.23437 0.12305,-0.35521 0.22984,-0.72042 0.32812,-1.09375 0.72665,-2.49451 1.1875,-5.80828 1.1875,-9.46875 0,-3.15996 -0.34832,-6.06326 -0.90625,-8.40625 -0.16157,-0.95004 -0.39245,-1.85337 -0.70312,-2.70313 -0.002,-0.005 0.002,-0.011 0,-0.0156 -0.0141,-0.048 -0.0323,-0.0928 -0.0469,-0.14063 -1.9048,-6.23549 -8.39133,-10.82812 -16.09376,-10.82812 z m -0.32813,4.95312 c 5.81648,0 10.68559,3.84866 11.96876,9.03125 0.78342,2.25991 1.26563,5.06147 1.26563,8.10938 0,3.53067 -0.63592,6.73457 -1.65625,9.14062 -0.138,0.36009 -0.31159,0.70427 -0.48438,1.04688 -0.0393,0.0743 -0.0692,0.16225 -0.10937,0.23437 -2.03242,3.81775 -6.19426,6.4375 -10.98439,6.4375 -3.38217,0 -6.44727,-1.30991 -8.67188,-3.42187 -0.0149,-0.0121 -0.032,-0.0189 -0.0469,-0.0312 -0.80089,-0.66338 -1.51051,-1.61326 -2.14063,-2.75 -0.10691,-0.19287 -0.21147,-0.38915 -0.3125,-0.59375 -0.13093,-0.25623 -0.27006,-0.53288 -0.39063,-0.8125 -0.0172,-0.0406 -0.0299,-0.084 -0.0469,-0.125 -0.0895,-0.21283 -0.16669,-0.43126 -0.25,-0.65625 -0.11983,-0.32347 -0.23745,-0.6574 -0.34375,-1 -0.0366,-0.11949 -0.0744,-0.23733 -0.10938,-0.35938 -0.0421,-0.14471 -0.0854,-0.28976 -0.125,-0.4375 -0.0445,-0.16894 -0.0837,-0.34243 -0.125,-0.51562 -0.0393,-0.16158 -0.0731,-0.31961 -0.10937,-0.48438 -0.39305,-1.78332 -0.625,-3.74672 -0.625,-5.8125 0,-5.95733 1.81909,-11.07085 4.42188,-13.375 0.0526,-0.0525 0.10268,-0.10469 0.15625,-0.15625 0.0202,-0.0167 0.0422,-0.0305 0.0625,-0.0469 2.22127,-2.11048 5.2741,-3.42188 8.65625,-3.42188 z"
     id="path3038"
     inkscape:connector-curvature="0" />
  <path
     style="fill:#ec1b23;fill-opacity:1"
     d="m 60.851454,112.07223 0,30.32813 c 0.005,-0.002 0.0111,0.002 0.0155,0 0.002,1.19443 0.19015,2.49094 0.60598,3.79687 0.36717,1.15308 0.87479,2.17943 1.46058,3.07813 0.002,0.004 -0.003,0.012 0,0.0156 0.31379,0.39549 0.66731,0.74079 1.04105,1.01562 1.64416,1.7204 4.10034,2.98036 6.94552,3.48438 0.16622,0.0294 0.32836,0.0696 0.49721,0.0937 1.23843,0.24129 2.60467,0.375 4.05543,0.375 0.7252,0 1.4331,-0.0301 2.11318,-0.0937 0.0365,3e-5 0.0723,2.9e-4 0.10877,0 4.93258,-0.0397 9.17656,-3.083 11.1874,-7.46875 l 0,7.5625 5.4694,0 0,-42.1875 -5.4694,0 0,24.53125 c -0.0937,1.66054 -0.41702,3.38533 -0.96336,5.14062 -0.46168,1.13484 -1.11193,2.26895 -1.86457,3.15625 -0.29927,0.35284 -0.58931,0.65027 -0.87013,0.875 -0.0117,0.0129 -0.0349,0.0184 -0.0466,0.0312 -1.60122,1.74951 -3.66567,3.00199 -5.98215,3.53125 -0.13974,0.0367 -0.30119,0.0626 -0.4506,0.0937 -0.0464,0.009 -0.0932,0.0232 -0.13985,0.0312 -0.67105,0.12947 -1.42043,0.20313 -2.22194,0.20313 -0.37286,0 -0.72262,-0.017 -1.07213,-0.0469 l 0,0.0156 c -4.02971,-0.14857 -7.37901,-2.7229 -8.35947,-6.1875 -0.21969,-0.4969 -0.39749,-1.05049 -0.52829,-1.64063 2.6e-4,-0.0414 0.002,-0.0822 0,-0.125 -0.007,-0.12844 -0.0342,-0.25604 -0.0622,-0.375 l 0,-29.23435 -5.46939,0 z"
     id="path3034"
     inkscape:connector-curvature="0" />
  <path
     style="fill:#ec1b23;fill-opacity:1"
     d="m 58.938954,112.00973 c -6.33928,0 -11.7632,2.95618 -13.93751,7.12596 l 0,-6.25246 -5.50001,0 0,41.3765 5.50001,0 0,-25.37758 c 0.0283,-0.12532 0.0688,-0.23457 0.0937,-0.36779 0.089,-0.47616 0.12153,-0.90196 0.14062,-1.3026 0.12353,-0.32287 0.21526,-0.65737 0.28125,-0.9961 0.0142,-0.0121 0.0324,-0.0195 0.0469,-0.0306 1.026,-4.97247 7.00826,-8.83892 14.39064,-9.1488 l 0,-4.99583 c -0.33577,-0.0169 -0.67409,-0.0306 -1.01562,-0.0306 z"
     id="path3140"
     inkscape:connector-curvature="0" />
  <path
     style="fill:#ec1b23;fill-opacity:1"
     d="m 18.054544,111.07223 c -5.99196,0 -11.2256099,3.18073 -14.0312599,7.90625 -0.0115,0.0194 -0.0198,0.043 -0.0312,0.0625 -1.43908,1.85653 -2.62125,4.74678 -3.17188003,8.125 -0.34243,2.10087 -0.39737,4.10245 -0.20312,5.875 0.0996,4.32532 1.17227003,8.14406 2.79687003,10.60938 2.60484,5.3447 8.1806599,9.04687 14.6406399,9.04687 5.35131,0 10.09517,-2.54448 13.04689,-6.45312 l 0,9.79687 0.0156,0 c -0.0164,0.34695 -0.0223,0.70162 -0.0156,1.07813 0.003,0.15686 0.009,0.30095 0.0156,0.45312 -10e-4,0.01 0.001,0.0214 0,0.0312 -0.43676,3.68825 -5.56816,6.59375 -11.81251,6.59375 -4.79474,0 -8.9088,-1.72143 -10.7656399,-4.1875 -0.0428,-0.0492 -0.0836,-0.10437 -0.125,-0.15625 -0.76209,-0.95553 -1.26441,-2.35082 -1.3125,-3.85937 l -4.98438,0 c 0.1163,7.23927 7.76582,13.07812 17.1875199,13.07812 9.40165,0 17.05514,-5.81332 17.20314,-13.03125 3.1e-4,-0.0154 -2.5e-4,-0.0315 0,-0.0469 l 0,-43.07813 -5.40626,0 0,4.59375 c -2.95171,-3.90865 -7.69558,-6.4375 -13.04688,-6.4375 z m 0.67188,4.59375 c 5.17915,0 9.61129,3.0212 11.54688,7.34375 0.0207,0.0396 0.0422,0.0846 0.0625,0.125 0.0205,0.0472 0.0427,0.0931 0.0625,0.14063 0.69803,1.43777 1.21215,3.33684 1.45313,5.5 0.1965,1.22014 0.3125,2.53961 0.3125,3.92187 0,2.95473 -0.50117,5.63912 -1.3125,7.625 -0.0847,0.20734 -0.1743,0.40214 -0.26563,0.59375 -0.29911,0.62756 -0.62382,1.17276 -0.98437,1.60938 -0.004,0.006 -0.0119,0.009 -0.0156,0.0156 -2.19423,3.58838 -6.23988,6 -10.85939,6 -5.03567,0 -9.3776599,-2.85108 -11.3906299,-6.98437 -1.21073,-1.90433 -2.03125,-5.31849 -2.03125,-9.21875 0,-3.05474 0.51611,-5.79799 1.3125,-7.76563 1.48061,-5.13506 6.3307999,-8.90625 12.1093799,-8.90625 z"
     id="path3822"
     inkscape:connector-curvature="0" />
  <path
     style="fill:#ec1b23;fill-opacity:1;stroke:none"
     d="m 155.60153,110.46286 c -9.62474,0 -17.57654,7.19203 -18.79689,16.51562 -0.35529,1.76224 -0.54687,3.716 -0.54687,5.78125 0,3.12177 0.45467,5.99152 1.21875,8.3125 0.0839,0.25484 0.17441,0.50912 0.26562,0.75 0.0158,0.0443 0.0152,0.0965 0.0312,0.14063 0.0842,0.21657 0.17576,0.43636 0.26563,0.64062 2.82494,6.95024 9.62424,11.84375 17.56251,11.84375 7.26658,0 13.55715,-4.11459 16.73439,-10.14062 0.004,-0.008 0.0115,-0.008 0.0156,-0.0156 1.62777,-2.49944 2.71875,-6.73036 2.71875,-11.53125 0,-2.88051 -0.40268,-5.56144 -1.0625,-7.78125 -0.001,-0.006 0.001,-0.01 0,-0.0156 -2.01327,-8.32917 -9.48417,-14.5 -18.40627,-14.5 z m -0.0312,4.40625 c 6.57955,0 12.09347,4.98083 13.57814,11.70312 0.001,0.005 -0.001,0.0106 0,0.0156 0.48658,1.79157 0.78125,3.95641 0.78125,6.28125 0,3.87473 -0.79961,7.2796 -2,9.29687 -0.003,0.006 -0.0126,0.009 -0.0156,0.0156 -2.34303,4.86354 -6.98506,8.1875 -12.34376,8.1875 -5.85403,0 -10.86989,-3.95306 -12.95313,-9.5625 -0.0663,-0.16486 -0.12544,-0.34082 -0.1875,-0.51563 -0.0119,-0.0356 -0.0196,-0.0736 -0.0312,-0.10937 -0.0673,-0.19442 -0.12564,-0.40371 -0.1875,-0.60938 -0.56347,-1.87323 -0.90626,-4.18358 -0.90626,-6.70312 0,-1.66685 0.14425,-3.2496 0.40626,-4.67188 0.89993,-7.52496 6.76167,-13.32812 13.85938,-13.32812 z"
     id="path3802"
     inkscape:connector-curvature="0" />
</svg>
